<svg xmlns="http://www.w3.org/2000/svg" width="1920" height="175"><defs><mask id="a"><rect width="100%" height="100%"/><svg><path fill="#fff" d="M1920 175c0-37.2-30.2-67.3-67.4-67.3-7 0-13.9 1.1-20.6 3.2-4.7-59.4-56.6-103.8-116-99.1-38.3 3-72.1 26.2-88.8 60.9-29.3-26.5-74.5-24.2-101 5.1a72.2 72.2 0 0 0-18.5 47c-6.6 3-12.7 6.9-18.1 11.7-25.1-37.4-73.2-51.8-114.6-34.3-16-49.4-69-76.5-118.4-60.5-15.9 5.2-30.1 14.5-41.3 27-10.5-10.5-26.5-13.2-39.9-6.8-42.3-59-124.4-72.4-183.3-30-24.5 17.6-42.2 43.1-50.1 72.3a72.4 72.4 0 0 0-23.8 7.8c-9.5-39-48.7-63-87.7-53.5-25 6.1-45 25-52.4 49.7-19.7 1.6-38.7 8.2-55.2 19.2-27.9-58.7-98.1-83.3-156.5-55.2-15.7 7.6-29.6 18.6-40.6 32.2-16.3-10.6-37.5-9.8-52.9 2.1-7-17.4-23.9-28.8-42.6-28.8-1.4 0-2.8.1-4.1.2-32.3-65-111.2-91.4-176.1-59.1-23.4 11.7-42.8 30.1-55.7 52.9-58.2-37.2-135.4-20.2-172.6 38-11.5 18-20.6 38.6-21.8 59.9l.074 5.469z"/></svg></mask></defs><rect width="100%" height="100%" mask="url(#a)"/></svg>